<svg width="18" height="18" viewBox="0 0 18 18" xmlns="http://www.w3.org/2000/svg">
  <path
    fill="#4285F4"
    d="M17.64 9.2045c0-.6382-.0573-1.2518-.1636-1.8409H9v3.4818h4.8436c-.2086 1.125-.8427 2.0782-1.7959 2.7164v2.2582h2.9086c1.7018-1.5668 2.6836-3.8741 2.6836-6.6155Z"
  />
  <path
    fill="#34A853"
    d="M9 18c2.43 0 4.4673-.8068 5.9564-2.1791l-2.9086-2.2582c-.8068.5409-1.8395.8609-3.0478.8609-2.3441 0-4.3282-1.5832-5.0364-3.7105H.9573v2.3318C2.4382 15.9868 5.4818 18 9 18Z"
  />
  <path
    fill="#FBBC05"
    d="M3.9636 10.7132A5.4108 5.4108 0 0 1 3.6818 9c0-.5959.1018-1.1741.2818-1.7132V4.955H.9573A8.9958 8.9958 0 0 0 0 9c0 1.4523.3477 2.8273.9573 4.045l3.0063-2.3318Z"
  />
  <path
    fill="#EA4335"
    d="M9 3.5768c1.3214 0 2.5078.4541 3.4405 1.3459l2.5813-2.5814C13.4632.8886 11.4259 0 9 0 5.4818 0 2.4382 2.0132.9573 4.955l3.0063 2.3318C4.6718 5.1595 6.6559 3.5768 9 3.5768Z"
  />
</svg>
